HIERARCHY
ROOT hip
{
OFFSET -0.31 90.95 0.24
CHANNELS 6 Xposition Yposition Zposition Zrotation Xrotation Yrotation
JOINT abdomen
{
OFFSET 0 7.23 0
CHANNELS 6 Xposition Yposition Zposition Zrotation Xrotation Yrotation
JOINT chest
{
OFFSET 0 16.54 0
CHANNELS 6 Xposition Yposition Zposition Zrotation Xrotation Yrotation
JOINT neck
{
OFFSET 0 34.21 0
CHANNELS 6 Xposition Yposition Zposition Zrotation Xrotation Yrotation
JOINT head
{
OFFSET 0 6.29 0
CHANNELS 6 Xposition Yposition Zposition Zrotation Xrotation Yrotation
End Site
{
OFFSET 0 21.21 0
}
}
}
JOINT lCollar
{
OFFSET 4.06 26.61 -1.12
CHANNELS 6 Xposition Yposition Zposition Zrotation Xrotation Yrotation
JOINT lShldr
{
OFFSET 14.17 0 0
CHANNELS 6 Xposition Yposition Zposition Zrotation Xrotation Yrotation
JOINT lForeArm
{
OFFSET 26.12 0 0
CHANNELS 6 Xposition Yposition Zposition Zrotation Xrotation Yrotation
JOINT lHand
{
OFFSET 27.71 0 0
CHANNELS 6 Xposition Yposition Zposition Zrotation Xrotation Yrotation
JOINT lThumb1
{
OFFSET 2.29 -0.46 1.83
CHANNELS 6 Xposition Yposition Zposition Zrotation Xrotation Yrotation
JOINT lThumb2
{
OFFSET 5.29 0 0
CHANNELS 6 Xposition Yposition Zposition Zrotation Xrotation Yrotation
JOINT lThumb3
{
OFFSET 3.01 0 0
CHANNELS 6 Xposition Yposition Zposition Zrotation Xrotation Yrotation
End Site
{
OFFSET 2.62 0 0
}
}
}
}
JOINT lIndex1
{
OFFSET 9.37 0.29 2.59
CHANNELS 6 Xposition Yposition Zposition Zrotation Xrotation Yrotation
JOINT lIndex2
{
OFFSET 4.34 0 0
CHANNELS 6 Xposition Yposition Zposition Zrotation Xrotation Yrotation
JOINT lIndex3
{
OFFSET 2.16 0 0
CHANNELS 6 Xposition Yposition Zposition Zrotation Xrotation Yrotation
End Site
{
OFFSET 2.20 0 0
}
}
}
}
JOINT lMid1
{
OFFSET 9.47 0.83 0.29
CHANNELS 6 Xposition Yposition Zposition Zrotation Xrotation Yrotation
JOINT lMid2
{
OFFSET 4.77 0 0
CHANNELS 6 Xposition Yposition Zposition Zrotation Xrotation Yrotation
JOINT lMid3
{
OFFSET 2.87 0 0
CHANNELS 6 Xposition Yposition Zposition Zrotation Xrotation Yrotation
End Site
{
OFFSET 2.09 0 0
}
}
}
}
JOINT lRing1
{
OFFSET 8.65 1.01 -1.70
CHANNELS 6 Xposition Yposition Zposition Zrotation Xrotation Yrotation
JOINT lRing2
{
OFFSET 4.54 0 0
CHANNELS 6 Xposition Yposition Zposition Zrotation Xrotation Yrotation
JOINT lRing3
{
OFFSET 2.50 0 0
CHANNELS 6 Xposition Yposition Zposition Zrotation Xrotation Yrotation
End Site
{
OFFSET 2.20 0 0
}
}
}
}
JOINT lPinky1
{
OFFSET 7.69 0.66 -3.90
CHANNELS 6 Xposition Yposition Zposition Zrotation Xrotation Yrotation
JOINT lPinky2
{
OFFSET 3.21 0 0
CHANNELS 6 Xposition Yposition Zposition Zrotation Xrotation Yrotation
JOINT lPinky3
{
OFFSET 1.92 0 0
CHANNELS 6 Xposition Yposition Zposition Zrotation Xrotation Yrotation
End Site
{
OFFSET 1.78 0 0
}
}
}
}
}
}
}
}
JOINT rCollar
{
OFFSET -4.06 26.61 -1.12
CHANNELS 6 Xposition Yposition Zposition Zrotation Xrotation Yrotation
JOINT rShldr
{
OFFSET -14.17 0 0
CHANNELS 6 Xposition Yposition Zposition Zrotation Xrotation Yrotation
JOINT rForeArm
{
OFFSET -26.12 0 0
CHANNELS 6 Xposition Yposition Zposition Zrotation Xrotation Yrotation
JOINT rHand
{
OFFSET -27.71 0 0
CHANNELS 6 Xposition Yposition Zposition Zrotation Xrotation Yrotation
JOINT rThumb1
{
OFFSET -2.29 -0.46 1.83
CHANNELS 6 Xposition Yposition Zposition Zrotation Xrotation Yrotation
JOINT rThumb2
{
OFFSET -5.29 0 0
CHANNELS 6 Xposition Yposition Zposition Zrotation Xrotation Yrotation
JOINT rThumb3
{
OFFSET -3.01 0 0
CHANNELS 6 Xposition Yposition Zposition Zrotation Xrotation Yrotation
End Site
{
OFFSET -2.62 0 0
}
}
}
}
JOINT rIndex1
{
OFFSET -9.37 0.29 2.59
CHANNELS 6 Xposition Yposition Zposition Zrotation Xrotation Yrotation
JOINT rIndex2
{
OFFSET -4.34 0 0
CHANNELS 6 Xposition Yposition Zposition Zrotation Xrotation Yrotation
JOINT rIndex3
{
OFFSET -2.16 0 0
CHANNELS 6 Xposition Yposition Zposition Zrotation Xrotation Yrotation
End Site
{
OFFSET -2.20 0 0
}
}
}
}
JOINT rMid1
{
OFFSET -9.47 0.83 0.29
CHANNELS 6 Xposition Yposition Zposition Zrotation Xrotation Yrotation
JOINT rMid2
{
OFFSET -4.77 0 0
CHANNELS 6 Xposition Yposition Zposition Zrotation Xrotation Yrotation
JOINT rMid3
{
OFFSET -2.87 0 0
CHANNELS 6 Xposition Yposition Zposition Zrotation Xrotation Yrotation
End Site
{
OFFSET -2.09 0 0
}
}
}
}
JOINT rRing1
{
OFFSET -8.65 1.01 -1.70
CHANNELS 6 Xposition Yposition Zposition Zrotation Xrotation Yrotation
JOINT rRing2
{
OFFSET -4.54 0 0
CHANNELS 6 Xposition Yposition Zposition Zrotation Xrotation Yrotation
JOINT rRing3
{
OFFSET -2.50 0 0
CHANNELS 6 Xposition Yposition Zposition Zrotation Xrotation Yrotation
End Site
{
OFFSET -2.20 0 0
}
}
}
}
JOINT rPinky1
{
OFFSET -7.69 0.66 -3.90
CHANNELS 6 Xposition Yposition Zposition Zrotation Xrotation Yrotation
JOINT rPinky2
{
OFFSET -3.21 0 0
CHANNELS 6 Xposition Yposition Zposition Zrotation Xrotation Yrotation
JOINT rPinky3
{
OFFSET -1.92 0 0
CHANNELS 6 Xposition Yposition Zposition Zrotation Xrotation Yrotation
End Site
{
OFFSET -1.78 0 0
}
}
}
}
}
}
}
}
}
}
JOINT lThigh
{
OFFSET 8.73 -0 0
CHANNELS 6 Xposition Yposition Zposition Zrotation Xrotation Yrotation
JOINT lShin
{
OFFSET 0 -46.66 0
CHANNELS 6 Xposition Yposition Zposition Zrotation Xrotation Yrotation
JOINT lFoot
{
OFFSET 0 -40.14 0
CHANNELS 6 Xposition Yposition Zposition Zrotation Xrotation Yrotation
JOINT lToes
{
OFFSET 0 -8.88 14.22
CHANNELS 6 Xposition Yposition Zposition Zrotation Xrotation Yrotation
End Site
{
OFFSET 0 0 6.29
}
}
}
}
}
JOINT rThigh
{
OFFSET -8.73 0 -0
CHANNELS 6 Xposition Yposition Zposition Zrotation Xrotation Yrotation
JOINT rShin
{
OFFSET 0 -46.66 0
CHANNELS 6 Xposition Yposition Zposition Zrotation Xrotation Yrotation
JOINT rFoot
{
OFFSET 0 -40.14 0
CHANNELS 6 Xposition Yposition Zposition Zrotation Xrotation Yrotation
JOINT rToes
{
OFFSET 0 -8.88 14.22
CHANNELS 6 Xposition Yposition Zposition Zrotation Xrotation Yrotation
End Site
{
OFFSET 0 0 6.29
}
}
}
}
}
}
MOTION
Frames: 7
Frame Time: 0.03
-0.31 90.95 0.24 -2.13 -0.99 -1.67 0 7.23 0 0.14 -0.76 -1.18 0 16.54 0 -0.02 0.33 -2.33 0 34.21 0 0.46 30.95 -0.57 0 6.29 0 3.99 -18.06 -1.27 4.06 26.61 -1.12 0.92 -4.43 6.72 14.17 0 0 -77.23 21.80 12.11 26.12 0 0 -0.31 0.06 -21.59 27.71 0 0 -4.13 1.96 1.64 2.29 -0.46 1.83 59.62 64.70 -73.50 5.29 0 0 -18.92 -4.40 6.13 3.01 0 0 12.44 0.67 2.88 9.37 0.29 2.59 -6.94 -1.27 0.65 4.34 0 0 -32.13 -1.72 6.92 2.16 0 0 -7.50 -0.09 1.17 9.47 0.83 0.29 -14.71 -4.27 2.82 4.77 0 0 -26.19 -1.55 7.06 2.87 0 0 -1.34 0.10 1.86 8.65 1.01 -1.70 -24.78 1.87 6.25 4.54 0 0 -20.41 -0.56 3.12 2.50 0 0 1.43 0.05 0.82 7.69 0.66 -3.90 -30 -9.81 11.57 3.21 0 0 -16.62 0.31 1.84 1.92 0 0 0.18 0.06 1.55 -4.06 26.61 -1.12 2.82 -3.94 1.44 -14.17 0 0 76.42 8.43 -7.60 -26.12 0 0 0.36 0.08 25.07 -27.71 0 0 0.26 -3.09 -5.60 -2.29 -0.46 1.83 -38.10 77.35 64.31 -5.29 0 0 20.89 -5.02 -5.85 -3.01 0 0 -14.76 0.63 -2.25 -9.37 0.29 2.59 17.33 -1.55 1.61 -4.34 0 0 32.45 -1.77 -7.02 -2.16 0 0 1.06 0 0.24 -9.47 0.83 0.29 22.90 -4.72 -3.12 -4.77 0 0 29.86 -2.05 -8.01 -2.87 0 0 -5.16 -0.59 -0.10 -8.65 1.01 -1.70 31.61 1.30 -9.75 -4.54 0 0 27.49 -1.02 -4.16 -2.50 0 0 -8.16 -0.77 0.13 -7.69 0.66 -3.90 36.27 -10.43 -14.04 -3.21 0 0 23.45 -1.75 -8.45 -1.92 0 0 -5.94 -0.05 0.56 8.73 -0 0 6.16 -17.54 11.94 0 -46.66 0 6.76 44.20 7.34 0 -40.14 0 -6.85 -22.64 14.57 0 -8.88 14.22 0 0 -0 -8.73 0 -0 -7.23 -17.97 -22.29 0 -46.66 0 -6.53 40.18 -2.77 0 -40.14 0 7.95 -18.31 -10.41 0 -8.88 14.22 0 0 0 
-0.31 90.95 0.25 -2.13 -1.01 -1.64 0 7.23 0 0.14 -0.76 -1.18 0 16.54 0 -0.02 0.33 -2.33 0 34.21 0 0.44 30.95 -0.57 0 6.29 0 3.95 -17.95 -1.26 4.06 26.61 -1.12 0.90 -4.43 6.72 14.17 0 0 -77.22 21.74 12.09 26.12 0 0 -0.31 0.06 -21.62 27.71 0 0 -4.13 1.95 1.53 2.29 -0.46 1.83 59.38 65.00 -73.22 5.29 0 0 -18.88 -4.39 6.12 3.01 0 0 12.50 0.68 2.88 9.37 0.29 2.59 -6.84 -1.27 0.70 4.34 0 0 -32.26 -1.73 6.95 2.16 0 0 -7.43 -0.09 1.16 9.47 0.83 0.29 -16.03 -4.32 2.92 4.77 0 0 -25.62 -1.48 6.92 2.87 0 0 -0.52 0.10 1.64 8.65 1.01 -1.70 -27.86 1.63 6.40 4.54 0 0 -19.00 -0.48 2.91 2.50 0 0 3.29 0.04 0.53 7.69 0.66 -3.90 -34.48 -10.28 11.74 3.21 0 0 -14.56 0.36 1.07 1.92 0 0 2.69 0.03 0.63 -4.06 26.61 -1.12 2.82 -3.94 1.42 -14.17 0 0 76.44 8.47 -7.61 -26.12 0 0 0.36 0.08 25.07 -27.71 0 0 0.23 -3.10 -5.58 -2.29 -0.46 1.83 -38.30 77.28 64.56 -5.29 0 0 20.90 -5.02 -5.85 -3.01 0 0 -14.67 0.62 -2.25 -9.37 0.29 2.59 17.22 -1.55 1.71 -4.34 0 0 32.53 -1.78 -7.04 -2.16 0 0 1.08 0 0.24 -9.47 0.83 0.29 22.66 -4.70 -2.99 -4.77 0 0 29.86 -2.05 -8.01 -2.87 0 0 -5.15 -0.61 -0.11 -8.65 1.01 -1.70 31.18 1.34 -9.58 -4.54 0 0 27.40 -1.01 -4.15 -2.50 0 0 -8.15 -0.79 0.12 -7.69 0.66 -3.90 35.73 -10.37 -13.83 -3.21 0 0 23.31 -1.73 -8.40 -1.92 0 0 -5.94 -0.05 0.56 8.73 -0 0 6.16 -17.54 11.92 0 -46.66 0 6.77 44.25 7.33 0 -40.14 0 -6.85 -22.64 14.52 0 -8.88 14.22 0 0 0 -8.73 0 -0 -7.24 -17.95 -22.31 0 -46.66 0 -6.52 40.21 -2.83 0 -40.14 0 7.98 -18.33 -10.35 0 -8.88 14.22 0 0 -0 
-0.31 90.95 0.26 -2.13 -1.01 -1.57 0 7.23 0 0.14 -0.76 -1.17 0 16.54 0 -0.03 0.33 -2.31 0 34.21 0 0.43 30.95 -0.56 0 6.29 0 3.90 -17.81 -1.25 4.06 26.61 -1.12 0.90 -4.43 6.72 14.17 0 0 -77.19 21.67 12.07 26.12 0 0 -0.31 0.06 -21.65 27.71 0 0 -4.13 1.94 1.43 2.29 -0.46 1.83 59.33 65.10 -73.12 5.29 0 0 -18.90 -4.39 6.13 3.01 0 0 12.46 0.68 2.88 9.37 0.29 2.59 -6.51 -1.27 0.67 4.34 0 0 -32.64 -1.78 7.02 2.16 0 0 -7.52 -0.10 1.18 9.47 0.83 0.29 -16.59 -4.35 2.90 4.77 0 0 -25.60 -1.48 6.91 2.87 0 0 -0.25 0.10 1.56 8.65 1.01 -1.70 -29.50 1.49 6.36 4.54 0 0 -18.50 -0.46 2.84 2.50 0 0 4.06 0.03 0.41 7.69 0.66 -3.90 -37.02 -10.58 11.68 3.21 0 0 -13.71 0.37 0.76 1.92 0 0 3.76 0.01 0.23 -4.06 26.61 -1.12 2.86 -3.94 1.44 -14.17 0 0 76.42 8.47 -7.66 -26.12 0 0 0.36 0.08 25.07 -27.71 0 0 0.21 -3.12 -5.58 -2.29 -0.46 1.83 -38.66 77.13 64.93 -5.29 0 0 20.96 -5.02 -5.88 -3.01 0 0 -14.58 0.61 -2.25 -9.37 0.29 2.59 16.83 -1.53 1.91 -4.34 0 0 32.69 -1.80 -7.07 -2.16 0 0 1.12 0 0.23 -9.47 0.83 0.29 22.07 -4.66 -2.74 -4.77 0 0 30 -2.07 -8.04 -2.87 0 0 -5.12 -0.62 -0.12 -8.65 1.01 -1.70 30.26 1.43 -9.27 -4.54 0 0 27.53 -1.02 -4.17 -2.50 0 0 -8.12 -0.80 0.12 -7.69 0.66 -3.90 34.63 -10.26 -13.46 -3.21 0 0 23.45 -1.75 -8.45 -1.92 0 0 -5.92 -0.05 0.55 8.73 -0 0 6.15 -17.53 11.88 0 -46.66 0 6.76 44.20 7.34 0 -40.14 0 -6.85 -22.63 14.49 0 -8.88 14.22 0 0 0 -8.73 0 -0 -7.27 -17.91 -22.41 0 -46.66 0 -6.51 40.16 -2.84 0 -40.14 0 7.99 -18.32 -10.31 0 -8.88 14.22 0 0 0 
-0.31 90.96 0.27 -2.13 -0.99 -1.48 0 7.23 0 0.13 -0.77 -1.16 0 16.54 0 -0.05 0.30 -2.29 0 34.21 0 0.43 30.95 -0.55 0 6.29 0 3.87 -17.68 -1.23 4.06 26.61 -1.12 0.92 -4.43 6.72 14.17 0 0 -77.16 21.59 12.02 26.12 0 0 -0.31 0.06 -21.67 27.71 0 0 -4.14 1.97 1.36 2.29 -0.46 1.83 59.33 65.13 -73.05 5.29 0 0 -18.95 -4.40 6.14 3.01 0 0 12.39 0.67 2.88 9.37 0.29 2.59 -6.02 -1.26 0.59 4.34 0 0 -33.21 -1.85 7.13 2.16 0 0 -7.72 -0.10 1.22 9.47 0.83 0.29 -16.84 -4.36 2.83 4.77 0 0 -25.81 -1.50 6.97 2.87 0 0 -0.24 0.10 1.56 8.65 1.01 -1.70 -30.63 1.39 6.30 4.54 0 0 -18.33 -0.45 2.81 2.50 0 0 4.36 0.03 0.37 7.69 0.66 -3.90 -38.88 -10.81 11.63 3.21 0 0 -13.25 0.38 0.58 1.92 0 0 4.27 0 0.05 -4.06 26.61 -1.12 2.94 -3.94 1.50 -14.17 0 0 76.36 8.45 -7.73 -26.12 0 0 0.36 0.08 25.06 -27.71 0 0 0.19 -3.12 -5.58 -2.29 -0.46 1.83 -39.05 76.97 65.30 -5.29 0 0 21.02 -5.03 -5.91 -3.01 0 0 -14.50 0.60 -2.24 -9.37 0.29 2.59 16.39 -1.50 2.11 -4.34 0 0 32.87 -1.82 -7.10 -2.16 0 0 1.16 0 0.22 -9.47 0.83 0.29 21.33 -4.61 -2.45 -4.77 0 0 30.18 -2.09 -8.09 -2.87 0 0 -5.07 -0.61 -0.13 -8.65 1.01 -1.70 29.08 1.53 -8.89 -4.54 0 0 27.75 -1.03 -4.20 -2.50 0 0 -8.08 -0.79 0.11 -7.69 0.66 -3.90 33.19 -10.11 -13.00 -3.21 0 0 23.68 -1.79 -8.53 -1.92 0 0 -5.88 -0.04 0.54 8.73 -0 0 6.13 -17.56 11.85 0 -46.66 0 6.76 44.17 7.34 0 -40.14 0 -6.84 -22.61 14.45 0 -8.88 14.22 0 0 -0 -8.73 0 -0 -7.31 -17.86 -22.52 0 -46.66 0 -6.46 40.10 -2.85 0 -40.14 0 8.01 -18.32 -10.28 0 -8.88 14.22 0 0 0 
-0.31 90.98 0.27 -2.11 -0.95 -1.36 0 7.23 0 0.12 -0.79 -1.14 0 16.54 0 -0.07 0.27 -2.25 0 34.21 0 0.42 30.96 -0.54 0 6.29 0 3.84 -17.58 -1.17 4.06 26.61 -1.12 0.93 -4.43 6.71 14.17 0 0 -77.08 21.48 11.96 26.12 0 0 -0.31 0.06 -21.67 27.71 0 0 -4.15 2.07 1.32 2.29 -0.46 1.83 59.41 65.11 -73.00 5.29 0 0 -19.01 -4.42 6.17 3.01 0 0 12.28 0.66 2.87 9.37 0.29 2.59 -5.30 -1.26 0.44 4.34 0 0 -34.02 -1.95 7.28 2.16 0 0 -8.12 -0.11 1.31 9.47 0.83 0.29 -16.56 -4.35 2.68 4.77 0 0 -26.39 -1.58 7.11 2.87 0 0 -0.67 0.10 1.68 8.65 1.01 -1.70 -30.86 1.36 6.16 4.54 0 0 -18.67 -0.47 2.86 2.50 0 0 3.89 0.04 0.44 7.69 0.66 -3.90 -39.54 -10.90 11.50 3.21 0 0 -13.41 0.38 0.64 1.92 0 0 3.80 0.01 0.22 -4.06 26.61 -1.12 3.01 -3.94 1.58 -14.17 0 0 76.29 8.40 -7.82 -26.12 0 0 0.36 0.08 25.05 -27.71 0 0 0.20 -3.12 -5.57 -2.29 -0.46 1.83 -39.40 76.82 65.62 -5.29 0 0 21.08 -5.04 -5.93 -3.01 0 0 -14.42 0.59 -2.24 -9.37 0.29 2.59 15.90 -1.48 2.31 -4.34 0 0 33.06 -1.84 -7.14 -2.16 0 0 1.20 0 0.21 -9.47 0.83 0.29 20.50 -4.56 -2.16 -4.77 0 0 30.40 -2.12 -8.14 -2.87 0 0 -5.02 -0.60 -0.14 -8.65 1.01 -1.70 27.72 1.65 -8.48 -4.54 0 0 28.03 -1.05 -4.24 -2.50 0 0 -8.03 -0.78 0.10 -7.69 0.66 -3.90 31.53 -9.95 -12.48 -3.21 0 0 24.01 -1.84 -8.64 -1.92 0 0 -5.84 -0.04 0.52 8.73 -0 0 6.10 -17.58 11.82 0 -46.66 0 6.76 44.10 7.33 0 -40.14 0 -6.82 -22.55 14.40 0 -8.88 14.22 0 0 0 -8.73 0 -0 -7.36 -17.82 -22.64 0 -46.66 0 -6.40 39.99 -2.90 0 -40.14 0 8.03 -18.30 -10.26 0 -8.88 14.22 0 0 0 
-0.31 90.95 0.26 -2.09 -0.91 -1.23 0 7.23 0 0.11 -0.80 -1.12 0 16.54 0 -0.09 0.24 -2.22 0 34.21 0 0.38 30.98 -0.50 0 6.29 0 3.81 -17.54 -1.09 4.06 26.61 -1.12 0.88 -4.43 6.70 14.17 0 0 -76.94 21.34 11.88 26.12 0 0 -0.31 0.06 -21.65 27.71 0 0 -4.15 2.24 1.30 2.29 -0.46 1.83 59.55 65.02 -72.96 5.29 0 0 -19.08 -4.44 6.20 3.01 0 0 12.17 0.65 2.87 9.37 0.29 2.59 -4.31 -1.25 0.19 4.34 0 0 -35.15 -2.10 7.49 2.16 0 0 -8.80 -0.14 1.46 9.47 0.83 0.29 -15.60 -4.30 2.40 4.77 0 0 -27.42 -1.71 7.37 2.87 0 0 -1.70 0.10 1.96 8.65 1.01 -1.70 -29.88 1.45 5.86 4.54 0 0 -19.64 -0.52 3.00 2.50 0 0 2.37 0.05 0.68 7.69 0.66 -3.90 -38.60 -10.79 11.19 3.21 0 0 -14.36 0.36 1.00 1.92 0 0 2.04 0.04 0.87 -4.06 26.61 -1.12 3.05 -3.93 1.66 -14.17 0 0 76.25 8.34 -7.89 -26.12 0 0 0.36 0.08 25.04 -27.71 0 0 0.21 -3.08 -5.56 -2.29 -0.46 1.83 -39.65 76.71 65.83 -5.29 0 0 21.10 -5.05 -5.94 -3.01 0 0 -14.37 0.59 -2.24 -9.37 0.29 2.59 15.44 -1.46 2.49 -4.34 0 0 33.24 -1.86 -7.17 -2.16 0 0 1.23 0 0.20 -9.47 0.83 0.29 19.67 -4.51 -1.88 -4.77 0 0 30.63 -2.15 -8.20 -2.87 0 0 -4.97 -0.58 -0.15 -8.65 1.01 -1.70 26.33 1.76 -8.08 -4.54 0 0 28.36 -1.08 -4.28 -2.50 0 0 -7.97 -0.77 0.10 -7.69 0.66 -3.90 29.81 -9.79 -11.97 -3.21 0 0 24.40 -1.90 -8.77 -1.92 0 0 -5.79 -0.04 0.50 8.73 -0 0 6.05 -17.71 11.76 0 -46.66 0 6.82 44.21 7.29 0 -40.14 0 -6.82 -22.60 14.39 0 -8.88 14.22 0 0 0 -8.73 0 -0 -7.43 -17.88 -22.71 0 -46.66 0 -6.38 40.10 -2.95 0 -40.14 0 8.10 -18.38 -10.23 0 -8.88 14.22 0 0 0 
-0.30 90.97 0.24 -2.06 -0.87 -1.13 0 7.23 0 0.11 -0.81 -1.11 0 16.54 0 -0.09 0.22 -2.19 0 34.21 0 0.31 31.00 -0.47 0 6.29 0 3.73 -17.54 -1.04 4.06 26.61 -1.12 0.79 -4.43 6.69 14.17 0 0 -76.76 21.21 11.79 26.12 0 0 -0.31 0.06 -21.60 27.71 0 0 -4.15 2.42 1.29 2.29 -0.46 1.83 59.74 64.90 -72.87 5.29 0 0 -19.16 -4.46 6.23 3.01 0 0 12.06 0.64 2.86 9.37 0.29 2.59 -3.02 -1.25 -0.16 4.34 0 0 -36.60 -2.29 7.76 2.16 0 0 -9.81 -0.17 1.68 9.47 0.83 0.29 -13.88 -4.24 1.95 4.77 0 0 -28.91 -1.90 7.74 2.87 0 0 -3.39 0.08 2.43 8.65 1.01 -1.70 -27.57 1.65 5.34 4.54 0 0 -21.25 -0.60 3.24 2.50 0 0 -0.27 0.06 1.09 7.69 0.66 -3.90 -35.89 -10.48 10.64 3.21 0 0 -16.10 0.32 1.65 1.92 0 0 -1.13 0.05 2.03 -4.06 26.61 -1.12 3.03 -3.93 1.70 -14.17 0 0 76.24 8.30 -7.92 -26.12 0 0 0.36 0.08 25.03 -27.71 0 0 0.26 -3.01 -5.53 -2.29 -0.46 1.83 -39.72 76.69 65.87 -5.29 0 0 21.06 -5.04 -5.92 -3.01 0 0 -14.35 0.59 -2.24 -9.37 0.29 2.59 15.09 -1.44 2.60 -4.34 0 0 33.39 -1.88 -7.20 -2.16 0 0 1.26 0 0.20 -9.47 0.83 0.29 18.95 -4.47 -1.67 -4.77 0 0 30.84 -2.19 -8.25 -2.87 0 0 -4.93 -0.56 -0.16 -8.65 1.01 -1.70 25.08 1.85 -7.74 -4.54 0 0 28.69 -1.10 -4.33 -2.50 0 0 -7.92 -0.74 0.09 -7.69 0.66 -3.90 28.22 -9.65 -11.53 -3.21 0 0 24.80 -1.96 -8.91 -1.92 0 0 -5.74 -0.04 0.49 8.73 -0 0 6.02 -17.72 11.82 0 -46.66 0 6.83 44.10 7.29 0 -40.14 0 -6.81 -22.56 14.29 0 -8.88 14.22 0 0 0 -8.73 0 -0 -7.47 -17.86 -22.69 0 -46.66 0 -6.30 40.01 -3.09 0 -40.14 0 8.13 -18.34 -10.22 0 -8.88 14.22 0 0 -0 
